<svg width="248" height="86" viewBox="0 0 248 86" fill="none" xmlns="http://www.w3.org/2000/svg">
<g clip-path="url(#clip0_4080_437)">
<path d="M80.3007 51.9434L91.9832 39.9355H98.0509L84.4233 53.5687L98.1421 70.0448H91.9832L81.207 56.6843L80.3007 57.5879V70.0475H75.6836V39.9383H80.3007V51.9462V51.9434Z" fill="#262626"/>
<path d="M106.516 39.9382V70.0475H101.898V39.9382H106.516Z" fill="#262626"/>
<path d="M162.52 54.3813H174.97V54.6071C174.97 59.753 173.431 63.9512 170.489 66.7941C167.363 69.8188 163.653 70.6314 160.21 70.6314C155.819 70.6314 152.694 69.367 149.931 66.5241C146.988 63.4994 145.449 59.483 145.449 55.1498C145.449 50.4558 147.35 46.3925 149.843 43.9105C152.423 41.2935 156.543 39.3955 161.207 39.3955C163.923 39.3955 166.731 39.9823 169.085 41.2908C171.574 42.6902 173.113 44.4504 173.976 45.8058L170.309 48.3787C169.403 47.1143 168.046 45.7617 166.595 44.949C164.921 43.9573 163.108 43.6406 161.251 43.6406C157.311 43.6406 154.777 45.2658 153.283 46.7562C151.29 48.7423 150.069 51.9461 150.069 55.1967C150.069 58.2214 151.202 61.246 153.194 63.3672C155.278 65.5792 157.858 66.3919 160.757 66.3919C163.382 66.3919 165.556 65.6233 167.504 63.7281C169.179 62.1028 169.859 60.3425 170.041 58.6263H162.525V54.384L162.52 54.3813Z" fill="#262626"/>
<path d="M187.102 39.9382C188.958 39.9382 191.539 40.12 193.711 41.5635C196.248 43.2329 197.469 46.1226 197.469 48.8773C197.469 50.6376 197.016 53.3455 194.526 55.4667C192.125 57.4969 189.365 57.8137 187.146 57.8137H185.062V70.0475H180.445V39.9382H187.102ZM185.065 53.5714H187.149C191.133 53.5714 193.034 51.6293 193.034 48.8305C193.034 47.1611 192.354 44.1805 187.102 44.1805H185.065V53.5687V53.5714Z" fill="#262626"/>
<path d="M233.464 57.0451L223.547 39.9382H228.8L235.774 51.9902L242.748 39.9382H248L238.084 57.0451V70.0447H233.466V57.0451H233.464Z" fill="#262626"/>
<path d="M139.976 70.0447V39.9382H135.356V60.7916L115.387 39.9382H113.441V70.0447H118.061V49.0096L138.202 70.0447H139.976Z" fill="#262626"/>
<path d="M212.887 39.9382H211.265L197.062 70.0475H202.044L205.349 62.7805H218.253L221.422 70.0475H226.404L212.887 39.9382ZM207.253 58.4445L211.917 48.2438L216.399 58.4445H207.253Z" fill="#262626"/>
<path d="M32.944 53.5546V41.566C36.163 42.0674 37.7794 43.8883 37.7794 46.9956V47.2821H41.7997C41.7085 41.4393 38.4674 38.5248 32.944 38.1612V34.8252H28.9236V38.2273C23.8727 38.9683 19.9242 41.8746 19.9242 47.5218C19.9242 53.169 23.6351 55.3342 28.9236 56.5049V69.7001C25.2625 69.0996 23.2731 66.882 23.2731 62.8904C23.2731 62.7472 23.2731 62.5571 23.3201 62.2706H19.25V62.7472C19.25 69.2043 23.1681 72.5788 28.9209 73.1325V77.1627H32.9412V73.1132C39.0808 72.4135 42.6121 68.78 42.6121 63.2265C42.6121 56.7308 38.122 55.0532 32.9412 53.5601L32.944 53.5546ZM28.9236 52.6456C26.1799 51.877 23.8975 50.4748 23.8975 47.1857C23.8975 44.2491 25.7986 42.2437 28.9236 41.6762V52.6456ZM32.944 69.7772V57.4278C35.9336 58.2184 38.5448 59.761 38.5448 63.3174C38.5448 66.8738 36.279 69.3117 32.944 69.7772Z" fill="url(#paint0_linear_4080_437)"/>
<path d="M54.5837 10.7737C52.6301 10.7737 51.0469 12.3521 51.0469 14.2997C51.0469 16.2473 52.6301 17.8258 54.5837 17.8258C56.5372 17.8258 58.1204 16.2473 58.1204 14.2997C58.1204 12.3521 56.5372 10.7737 54.5837 10.7737Z" fill="url(#paint1_linear_4080_437)"/>
<path d="M40.7084 17.1649C35.1684 15.7655 30.9325 7.05225 30.9325 7.05225C30.9325 7.05225 26.6967 15.7627 21.1567 17.1649C15.6166 18.5643 12.5358 17.7489 9.92188 16.6993C9.92188 16.6993 14.4285 24.5944 14.4285 28.5998H47.4338C47.4338 24.5944 51.9405 16.6993 51.9405 16.6993C49.3266 17.7489 46.2457 18.567 40.7057 17.1649H40.7084Z" fill="url(#paint2_linear_4080_437)"/>
<path d="M10.5526 15.6496C11.3001 13.8504 10.4432 11.7878 8.63855 11.0426C6.83393 10.2973 4.76503 11.1517 4.01753 12.9508C3.27003 14.75 4.127 16.8126 5.93162 17.5579C7.73624 18.3031 9.80514 17.4487 10.5526 15.6496Z" fill="url(#paint3_linear_4080_437)"/>
<path d="M33.4362 6.01942C34.8174 4.64241 34.8174 2.40984 33.4362 1.03282C32.055 -0.344187 29.8157 -0.344187 28.4345 1.03282C27.0533 2.40984 27.0533 4.64241 28.4345 6.01942C29.8157 7.39643 32.055 7.39644 33.4362 6.01942Z" fill="url(#paint4_linear_4080_437)"/>
<path d="M25.6159 31.7346H14.4336V34.0679H25.6159V31.7346Z" fill="url(#paint5_linear_4080_437)"/>
<path d="M47.4362 31.7346H36.2539V34.0679H47.4362V31.7346Z" fill="url(#paint6_linear_4080_437)"/>
<path d="M53.0751 52.891H56.7003V50.2437H53.0751C52.3429 50.2437 51.7461 50.8359 51.7461 51.5687C51.7461 52.3014 52.3402 52.8937 53.0751 52.8937V52.891Z" fill="url(#paint7_linear_4080_437)"/>
<path d="M53.0751 58.4886H56.7003V55.8413H53.0751C52.3429 55.8413 51.7461 56.4336 51.7461 57.1663C51.7461 57.8991 52.3402 58.4914 53.0751 58.4914V58.4886Z" fill="url(#paint8_linear_4080_437)"/>
<path d="M53.0947 47.3126H54.8548C55.5594 47.3126 56.1286 46.7451 56.1286 46.0426V45.9903C56.1286 45.2603 55.5345 44.6653 54.7995 44.6653H53.0947C52.3625 44.6653 51.7656 45.2576 51.7656 45.9903C51.7656 46.7231 52.3597 47.3153 53.0947 47.3153V47.3126Z" fill="url(#paint9_linear_4080_437)"/>
<path d="M56.1286 62.8161V62.7637C56.1286 62.0337 55.5345 61.4387 54.7995 61.4387H53.0947C52.3625 61.4387 51.7656 62.031 51.7656 62.7637C51.7656 63.4965 52.3597 64.0888 53.0947 64.0888H54.8548C55.5594 64.0888 56.1286 63.5213 56.1286 62.8188V62.8161Z" fill="url(#paint10_linear_4080_437)"/>
<path d="M53.0947 69.6645C53.8287 69.6645 54.4237 69.0712 54.4237 68.3394C54.4237 67.6076 53.8287 67.0144 53.0947 67.0144C52.3607 67.0144 51.7656 67.6076 51.7656 68.3394C51.7656 69.0712 52.3607 69.6645 53.0947 69.6645Z" fill="url(#paint11_linear_4080_437)"/>
<path d="M8.76827 44.6654H7.06343C6.33121 44.6654 5.73438 45.2576 5.73438 45.9904V46.0427C5.73438 46.7452 6.30358 47.3126 7.00817 47.3126H8.76827C9.50049 47.3126 10.0973 46.7204 10.0973 45.9876C10.0973 45.2549 9.50325 44.6626 8.76827 44.6626V44.6654Z" fill="url(#paint12_linear_4080_437)"/>
<path d="M8.76827 61.4388H7.06343C6.33121 61.4388 5.73438 62.0311 5.73438 62.7638V62.8162C5.73438 63.5186 6.30358 64.0861 7.00817 64.0861H8.76827C9.50049 64.0861 10.0973 63.4938 10.0973 62.7611C10.0973 62.0283 9.50325 61.436 8.76827 61.436V61.4388Z" fill="url(#paint13_linear_4080_437)"/>
<path d="M8.77046 67.0144C8.03824 67.0144 7.44141 67.6067 7.44141 68.3394C7.44141 69.0722 8.03547 69.6645 8.77046 69.6645C9.50545 69.6645 10.0995 69.0722 10.0995 68.3394C10.0995 67.6067 9.50545 67.0144 8.77046 67.0144Z" fill="url(#paint14_linear_4080_437)"/>
<path d="M52.9666 25.6824C52.6185 26.495 52.2151 27.7209 51.9166 29.4646C55.528 31.3544 57.9982 35.1284 57.9982 39.4698V70.849C57.9982 77.0774 52.9169 82.1434 46.6695 82.1434H30.9336V86H46.6695C55.0638 86 61.8666 79.2178 61.8666 70.849V39.4698C61.8666 33.3433 58.2165 28.068 52.9666 25.6824Z" fill="url(#paint15_linear_4080_437)"/>
<path d="M3.86835 70.8489V58.4884H8.44406C9.3697 58.4884 10.1185 57.8962 10.1185 57.1634C10.1185 56.4306 9.3697 55.8384 8.44406 55.8384H0V70.8462C0 79.215 6.80277 85.9999 15.1971 85.9999H30.933V82.1433H15.1971C8.94971 82.1433 3.86835 77.0774 3.86835 70.8489Z" fill="url(#paint16_linear_4080_437)"/>
<path d="M3.86835 44.6653H0V47.3126H3.86835V44.6653Z" fill="url(#paint17_linear_4080_437)"/>
<path d="M3.86835 39.4698C3.86835 35.1284 6.33857 31.3544 9.94995 29.4646C9.65154 27.7181 9.24812 26.495 8.89997 25.6824C3.65007 28.068 0 33.3433 0 39.4698V41.737H3.86835V39.4698Z" fill="url(#paint18_linear_4080_437)"/>
<path d="M3.86835 52.8908H8.78945C9.52167 52.8908 10.1185 52.2985 10.1185 51.5657C10.1185 50.833 9.52443 50.2407 8.78945 50.2407H0V52.9073H3.86835V52.888V52.8908Z" fill="url(#paint19_linear_4080_437)"/>
<path d="M14.082 26.2637C14.3003 27.1149 14.4329 27.9138 14.4329 28.5969H47.4383C47.4383 27.9138 47.5709 27.1149 47.7892 26.2637H14.082Z" fill="url(#paint20_linear_4080_437)"/>
<path d="M14.082 26.2637C14.3003 27.1149 14.4329 27.9138 14.4329 28.5969H47.4383C47.4383 27.9138 47.5709 27.1149 47.7892 26.2637H14.082Z" fill="url(#paint21_linear_4080_437)"/>
</g>
<defs>
<linearGradient id="paint0_linear_4080_437" x1="30.7685" y1="35.2119" x2="30.7685" y2="78.7639" gradientUnits="userSpaceOnUse">
<stop stop-color="#16128B"/>
<stop offset="1" stop-color="#47E1DD"/>
</linearGradient>
<linearGradient id="paint1_linear_4080_437" x1="54.5345" y1="10.8381" x2="54.5345" y2="18.0925" gradientUnits="userSpaceOnUse">
<stop stop-color="#16128B"/>
<stop offset="1" stop-color="#47E1DD"/>
</linearGradient>
<linearGradient id="paint2_linear_4080_437" x1="30.6389" y1="7.24907" x2="30.6389" y2="29.4147" gradientUnits="userSpaceOnUse">
<stop stop-color="#16128B"/>
<stop offset="1" stop-color="#47E1DD"/>
</linearGradient>
<linearGradient id="paint3_linear_4080_437" x1="4.05839" y1="13.0208" x2="10.775" y2="15.8114" gradientUnits="userSpaceOnUse">
<stop stop-color="#16128B"/>
<stop offset="1" stop-color="#47E1DD"/>
</linearGradient>
<linearGradient id="paint4_linear_4080_437" x1="28.4454" y1="1.11306" x2="33.575" y2="6.25827" gradientUnits="userSpaceOnUse">
<stop stop-color="#16128B"/>
<stop offset="1" stop-color="#47E1DD"/>
</linearGradient>
<linearGradient id="paint5_linear_4080_437" x1="19.947" y1="31.7559" x2="19.947" y2="34.1561" gradientUnits="userSpaceOnUse">
<stop stop-color="#16128B"/>
<stop offset="1" stop-color="#47E1DD"/>
</linearGradient>
<linearGradient id="paint6_linear_4080_437" x1="41.7673" y1="31.7559" x2="41.7673" y2="34.1561" gradientUnits="userSpaceOnUse">
<stop stop-color="#16128B"/>
<stop offset="1" stop-color="#47E1DD"/>
</linearGradient>
<linearGradient id="paint7_linear_4080_437" x1="54.1888" y1="50.2679" x2="54.1888" y2="52.9939" gradientUnits="userSpaceOnUse">
<stop stop-color="#16128B"/>
<stop offset="1" stop-color="#47E1DD"/>
</linearGradient>
<linearGradient id="paint8_linear_4080_437" x1="54.1888" y1="55.8655" x2="54.1888" y2="58.5916" gradientUnits="userSpaceOnUse">
<stop stop-color="#16128B"/>
<stop offset="1" stop-color="#47E1DD"/>
</linearGradient>
<linearGradient id="paint9_linear_4080_437" x1="53.9168" y1="44.6895" x2="53.9168" y2="47.4156" gradientUnits="userSpaceOnUse">
<stop stop-color="#16128B"/>
<stop offset="1" stop-color="#47E1DD"/>
</linearGradient>
<linearGradient id="paint10_linear_4080_437" x1="53.9168" y1="61.4629" x2="53.9168" y2="64.189" gradientUnits="userSpaceOnUse">
<stop stop-color="#16128B"/>
<stop offset="1" stop-color="#47E1DD"/>
</linearGradient>
<linearGradient id="paint11_linear_4080_437" x1="53.0762" y1="67.0386" x2="53.0762" y2="69.7647" gradientUnits="userSpaceOnUse">
<stop stop-color="#16128B"/>
<stop offset="1" stop-color="#47E1DD"/>
</linearGradient>
<linearGradient id="paint12_linear_4080_437" x1="7.8855" y1="44.6868" x2="7.8855" y2="47.4129" gradientUnits="userSpaceOnUse">
<stop stop-color="#16128B"/>
<stop offset="1" stop-color="#47E1DD"/>
</linearGradient>
<linearGradient id="paint13_linear_4080_437" x1="7.8855" y1="61.4602" x2="7.8855" y2="64.1863" gradientUnits="userSpaceOnUse">
<stop stop-color="#16128B"/>
<stop offset="1" stop-color="#47E1DD"/>
</linearGradient>
<linearGradient id="paint14_linear_4080_437" x1="8.75197" y1="67.0386" x2="8.75197" y2="69.7647" gradientUnits="userSpaceOnUse">
<stop stop-color="#16128B"/>
<stop offset="1" stop-color="#47E1DD"/>
</linearGradient>
<linearGradient id="paint15_linear_4080_437" x1="46.1849" y1="26.2333" x2="46.1849" y2="88.2812" gradientUnits="userSpaceOnUse">
<stop stop-color="#16128B"/>
<stop offset="1" stop-color="#47E1DD"/>
</linearGradient>
<linearGradient id="paint16_linear_4080_437" x1="15.2513" y1="56.1139" x2="15.2513" y2="87.1406" gradientUnits="userSpaceOnUse">
<stop stop-color="#16128B"/>
<stop offset="1" stop-color="#47E1DD"/>
</linearGradient>
<linearGradient id="paint17_linear_4080_437" x1="1.90727" y1="44.6895" x2="1.90727" y2="47.4127" gradientUnits="userSpaceOnUse">
<stop stop-color="#16128B"/>
<stop offset="1" stop-color="#47E1DD"/>
</linearGradient>
<linearGradient id="paint18_linear_4080_437" x1="4.90577" y1="25.829" x2="4.90577" y2="42.3441" gradientUnits="userSpaceOnUse">
<stop stop-color="#16128B"/>
<stop offset="1" stop-color="#47E1DD"/>
</linearGradient>
<linearGradient id="paint19_linear_4080_437" x1="4.98887" y1="50.2651" x2="4.98887" y2="53.0081" gradientUnits="userSpaceOnUse">
<stop stop-color="#16128B"/>
<stop offset="1" stop-color="#47E1DD"/>
</linearGradient>
<linearGradient id="paint20_linear_4080_437" x1="30.7012" y1="26.285" x2="30.7012" y2="28.6852" gradientUnits="userSpaceOnUse">
<stop stop-color="#16128B"/>
<stop offset="1" stop-color="#47E1DD"/>
</linearGradient>
<linearGradient id="paint21_linear_4080_437" x1="30.7012" y1="26.285" x2="30.7012" y2="28.6852" gradientUnits="userSpaceOnUse">
<stop stop-color="#16128B"/>
<stop offset="1" stop-color="#47E1DD"/>
</linearGradient>
<clipPath id="clip0_4080_437">
<rect width="248" height="86" fill="white"/>
</clipPath>
</defs>
</svg>
