<svg width="4089" height="1325" viewBox="0 0 4089 1325" fill="none" xmlns="http://www.w3.org/2000/svg">
<path d="M231.632 667.565H756.273V731.241H231.632V667.565ZM239.937 1158.98H169.339V189.989H817.181V253.665H239.937V1158.98ZM1281.34 1164.52C1211.2 1164.52 1148.45 1148.83 1093.07 1117.46C1038.63 1086.08 995.252 1042.7 962.952 987.333C931.575 931.962 915.887 868.746 915.887 797.687C915.887 725.704 931.575 662.027 962.952 606.656C995.252 551.285 1038.63 508.373 1093.07 477.918C1148.45 446.541 1211.2 430.853 1281.34 430.853C1339.48 430.853 1392.08 441.927 1439.14 464.076C1487.13 486.224 1525.89 519.447 1555.42 563.744L1504.21 601.119C1478.37 564.205 1446.07 536.981 1407.31 519.447C1368.55 501.913 1326.56 493.145 1281.34 493.145C1225.04 493.145 1174.29 506.065 1129.07 531.905C1084.77 556.822 1049.7 592.352 1023.86 638.495C998.943 683.714 986.485 736.778 986.485 797.687C986.485 858.595 998.943 912.12 1023.86 958.263C1049.7 1003.48 1084.77 1039.01 1129.07 1064.85C1174.29 1089.77 1225.04 1102.23 1281.34 1102.23C1326.56 1102.23 1368.55 1093.46 1407.31 1075.93C1446.07 1058.39 1478.37 1031.17 1504.21 994.254L1555.42 1031.63C1525.89 1075.93 1487.13 1109.15 1439.14 1131.3C1392.08 1153.45 1339.48 1164.52 1281.34 1164.52ZM2032.86 1164.52C1963.64 1164.52 1901.81 1148.83 1847.37 1117.46C1793.84 1086.08 1750.93 1042.7 1718.63 987.333C1687.25 931.962 1671.56 868.746 1671.56 797.687C1671.56 725.704 1687.25 662.489 1718.63 608.041C1750.93 552.669 1793.84 509.295 1847.37 477.918C1901.81 446.541 1963.64 430.853 2032.86 430.853C2102.07 430.853 2163.9 446.541 2218.35 477.918C2272.8 509.295 2315.71 552.669 2347.09 608.041C2378.47 662.489 2394.16 725.704 2394.16 797.687C2394.16 868.746 2378.47 931.962 2347.09 987.333C2315.71 1042.7 2272.8 1086.08 2218.35 1117.46C2163.9 1148.83 2102.07 1164.52 2032.86 1164.52ZM2032.86 1102.23C2088.23 1102.23 2138.06 1089.77 2182.36 1064.85C2226.66 1039.01 2261.26 1003.02 2286.18 956.879C2311.1 910.736 2323.56 857.672 2323.56 797.687C2323.56 736.778 2311.1 683.714 2286.18 638.495C2261.26 592.352 2226.66 556.822 2182.36 531.905C2138.06 506.065 2088.23 493.145 2032.86 493.145C1977.49 493.145 1927.65 506.065 1883.36 531.905C1839.98 556.822 1805.38 592.352 1779.54 638.495C1754.62 683.714 1742.16 736.778 1742.16 797.687C1742.16 857.672 1754.62 910.736 1779.54 956.879C1805.38 1003.02 1839.98 1039.01 1883.36 1064.85C1927.65 1089.77 1977.49 1102.23 2032.86 1102.23ZM2608.88 1158.98V436.39H2675.33V634.342L2668.4 612.193C2688.71 554.054 2722.85 509.295 2770.84 477.918C2818.83 446.541 2878.82 430.853 2950.8 430.853V498.683C2948.03 498.683 2945.26 498.683 2942.49 498.683C2939.72 497.76 2936.95 497.298 2934.19 497.298C2853.9 497.298 2791.14 522.677 2745.92 573.434C2700.7 623.268 2678.09 692.943 2678.09 782.46V1158.98H2608.88ZM3428.21 1164.52C3355.31 1164.52 3290.71 1148.83 3234.41 1117.46C3179.04 1086.08 3135.21 1042.7 3102.91 987.333C3071.53 931.962 3055.84 868.746 3055.84 797.687C3055.84 725.704 3070.61 662.489 3100.14 608.041C3130.59 552.669 3172.12 509.295 3224.72 477.918C3277.32 446.541 3336.39 430.853 3401.91 430.853C3467.43 430.853 3526.03 446.08 3577.71 476.534C3630.32 506.988 3671.38 549.901 3700.91 605.272C3731.37 659.72 3746.6 722.936 3746.6 794.918C3746.6 797.687 3746.13 800.917 3745.21 804.608C3745.21 807.377 3745.21 810.607 3745.21 814.298H3107.06V760.311H3707.84L3680.15 786.612C3681.07 730.319 3669.08 680.023 3644.16 635.726C3620.16 590.506 3587.4 555.438 3545.87 530.521C3504.35 504.681 3456.36 491.761 3401.91 491.761C3348.38 491.761 3300.4 504.681 3257.95 530.521C3216.42 555.438 3183.66 590.506 3159.66 635.726C3135.67 680.023 3123.67 730.78 3123.67 787.997V800.455C3123.67 859.518 3136.59 912.12 3162.43 958.263C3189.19 1003.48 3225.65 1039.01 3271.79 1064.85C3317.93 1089.77 3370.53 1102.23 3429.6 1102.23C3475.74 1102.23 3518.65 1093.92 3558.33 1077.31C3598.94 1060.7 3633.08 1035.32 3660.77 1001.18L3700.91 1046.86C3669.54 1085.62 3629.85 1115.15 3581.87 1135.45C3534.8 1154.83 3483.58 1164.52 3428.21 1164.52Z" fill="#191919"/>
<circle cx="3954.65" cy="135.332" r="134.349" fill="#367D6C"/>
</svg>
