<svg width="155" height="54" viewBox="0 0 155 54" fill="none" xmlns="http://www.w3.org/2000/svg">
<g clip-path="url(#clip0_4232_2243)">
<path d="M50.1885 32.6155L57.49 25.0757H61.2823L52.7651 33.636L61.3393 43.9815H57.49L50.7549 35.5924L50.1885 36.1597V43.9832H47.3027V25.0774H50.1885V32.6172V32.6155Z" fill="white"/>
<path d="M66.5713 25.0776V43.9834H63.6855V25.0776H66.5713Z" fill="white"/>
<path d="M101.575 34.1465H109.357V34.2883C109.357 37.5194 108.395 40.1555 106.556 41.9406C104.603 43.8398 102.283 44.3501 100.132 44.3501C97.3875 44.3501 95.4343 43.5561 93.7073 41.7711C91.8682 39.8718 90.9062 37.3499 90.9062 34.6291C90.9062 31.6816 92.0944 29.1303 93.6521 27.5718C95.265 25.9286 97.8399 24.7368 100.755 24.7368C102.453 24.7368 104.207 25.1052 105.679 25.9269C107.234 26.8056 108.196 27.9108 108.735 28.7619L106.444 30.3774C105.877 29.5835 105.029 28.7342 104.123 28.2239C103.076 27.6012 101.943 27.4023 100.783 27.4023C98.32 27.4023 96.7364 28.4228 95.8021 29.3586C94.557 30.6057 93.7937 32.6174 93.7937 34.6585C93.7937 36.5577 94.5017 38.4569 95.7469 39.7888C97.049 41.1778 98.6619 41.688 100.474 41.688C102.114 41.688 103.473 41.2054 104.691 40.0154C105.737 38.9949 106.162 37.8896 106.276 36.812H101.579V34.1482L101.575 34.1465Z" fill="white"/>
<path d="M116.94 25.0776C118.1 25.0776 119.713 25.1918 121.07 26.0982C122.656 27.1464 123.419 28.9608 123.419 30.6906C123.419 31.7959 123.136 33.4962 121.58 34.828C120.079 36.1028 118.354 36.3018 116.967 36.3018H115.665V43.9834H112.779V25.0776H116.94ZM115.667 33.638H116.969C119.459 33.638 120.647 32.4186 120.647 30.6612C120.647 29.613 120.222 27.7414 116.94 27.7414H115.667V33.6363V33.638Z" fill="white"/>
<path d="M145.917 35.8192L139.719 25.0776H143.002L147.36 32.6451L151.719 25.0776H155.002L148.804 35.8192V43.9817H145.918V35.8192H145.917Z" fill="white"/>
<path d="M87.4862 43.9817V25.0776H84.5987V38.1716L72.1181 25.0776H70.9023V43.9817H73.7898V30.7736L86.3775 43.9817H87.4862Z" fill="white"/>
<path d="M133.054 25.0776H132.041L123.164 43.9834H126.278L128.343 39.4204H136.408L138.389 43.9834H141.502L133.054 25.0776ZM129.533 36.6979L132.448 30.2927L135.249 36.6979H129.533Z" fill="white"/>
<path d="M20.59 33.6275V26.0998C22.6019 26.4146 23.6121 27.558 23.6121 29.5091V29.689H26.1248C26.0678 26.0202 24.0421 24.1902 20.59 23.9619V21.8672H18.0773V24.0034C14.9204 24.4687 12.4526 26.2935 12.4526 29.8394C12.4526 33.3854 14.7719 34.7449 18.0773 35.4801V43.7654C15.7891 43.3883 14.5457 41.9959 14.5457 39.4895C14.5457 39.3996 14.5457 39.2802 14.575 39.1003H12.0312V39.3996C12.0312 43.454 14.4801 45.5729 18.0755 45.9206V48.4512H20.5883V45.9085C24.4255 45.4692 26.6326 43.1877 26.6326 39.7006C26.6326 35.6219 23.8263 34.5685 20.5883 33.631L20.59 33.6275ZM18.0773 33.0567C16.3624 32.5741 14.936 31.6937 14.936 29.6284C14.936 27.7845 16.1241 26.5253 18.0773 26.169V33.0567ZM20.59 43.8138V36.0595C22.4585 36.5559 24.0905 37.5246 24.0905 39.7576C24.0905 41.9907 22.6744 43.5215 20.59 43.8138Z" fill="white"/>
<path d="M34.1148 6.76514C32.8938 6.76514 31.9043 7.75626 31.9043 8.97917C31.9043 10.2021 32.8938 11.1932 34.1148 11.1932C35.3357 11.1932 36.3253 10.2021 36.3253 8.97917C36.3253 7.75626 35.3357 6.76514 34.1148 6.76514Z" fill="white"/>
<path d="M25.4428 10.778C21.9802 9.89931 19.3328 4.42822 19.3328 4.42822C19.3328 4.42822 16.6854 9.89758 13.2229 10.778C9.7604 11.6567 7.83486 11.1447 6.20117 10.4857C6.20117 10.4857 9.01782 15.4431 9.01782 17.9581H29.6461C29.6461 15.4431 32.4628 10.4857 32.4628 10.4857C30.8291 11.1447 28.9036 11.6584 25.441 10.778H25.4428Z" fill="white"/>
<path d="M6.59638 9.82678C7.06357 8.69708 6.52796 7.40194 5.40007 6.934C4.27218 6.46607 2.97912 7.00253 2.51193 8.13223C2.04475 9.26193 2.58035 10.5571 3.70824 11.025C4.83613 11.4929 6.12919 10.9565 6.59638 9.82678Z" fill="white"/>
<path d="M20.8962 3.77992C21.7594 2.91528 21.7594 1.51343 20.8962 0.648796C20.0329 -0.215839 18.6333 -0.215839 17.7701 0.648796C16.9068 1.51343 16.9068 2.91528 17.7701 3.77992C18.6333 4.64455 20.0329 4.64455 20.8962 3.77992Z" fill="white"/>
<path d="M16.0085 19.9263H9.01953V21.3913H16.0085V19.9263Z" fill="white"/>
<path d="M29.6491 19.9263H22.6602V21.3913H29.6491V19.9263Z" fill="white"/>
<path d="M33.1725 33.2106H35.4382V31.5483H33.1725C32.7148 31.5483 32.3418 31.9202 32.3418 32.3803C32.3418 32.8404 32.7131 33.2123 33.1725 33.2123V33.2106Z" fill="white"/>
<path d="M33.1725 36.7252H35.4382V35.063H33.1725C32.7148 35.063 32.3418 35.4349 32.3418 35.895C32.3418 36.3551 32.7131 36.727 33.1725 36.727V36.7252Z" fill="white"/>
<path d="M33.1842 29.7077H34.2842C34.7246 29.7077 35.0804 29.3513 35.0804 28.9103V28.8774C35.0804 28.419 34.7091 28.0454 34.2497 28.0454H33.1842C32.7265 28.0454 32.3535 28.4173 32.3535 28.8774C32.3535 29.3375 32.7248 29.7094 33.1842 29.7094V29.7077Z" fill="white"/>
<path d="M35.0804 39.443V39.4101C35.0804 38.9517 34.7091 38.5781 34.2497 38.5781H33.1842C32.7265 38.5781 32.3535 38.95 32.3535 39.4101C32.3535 39.8702 32.7248 40.2421 33.1842 40.2421H34.2842C34.7246 40.2421 35.0804 39.8858 35.0804 39.4447V39.443Z" fill="white"/>
<path d="M33.1842 43.7426C33.6429 43.7426 34.0148 43.3701 34.0148 42.9106C34.0148 42.4511 33.6429 42.0786 33.1842 42.0786C32.7254 42.0786 32.3535 42.4511 32.3535 42.9106C32.3535 43.3701 32.7254 43.7426 33.1842 43.7426Z" fill="white"/>
<path d="M5.48212 28.0457H4.4166C3.95896 28.0457 3.58594 28.4176 3.58594 28.8777V28.9105C3.58594 29.3516 3.94169 29.7079 4.38206 29.7079H5.48212C5.93976 29.7079 6.31278 29.336 6.31278 28.8759C6.31278 28.4158 5.94149 28.0439 5.48212 28.0439V28.0457Z" fill="white"/>
<path d="M5.48212 38.5779H4.4166C3.95896 38.5779 3.58594 38.9498 3.58594 39.4099V39.4428C3.58594 39.8838 3.94169 40.2402 4.38206 40.2402H5.48212C5.93976 40.2402 6.31278 39.8683 6.31278 39.4082C6.31278 38.9481 5.94149 38.5762 5.48212 38.5762V38.5779Z" fill="white"/>
<path d="M5.48105 42.0786C5.02341 42.0786 4.65039 42.4505 4.65039 42.9106C4.65039 43.3707 5.02168 43.7426 5.48105 43.7426C5.94042 43.7426 6.31171 43.3707 6.31171 42.9106C6.31171 42.4505 5.94042 42.0786 5.48105 42.0786Z" fill="white"/>
<path d="M33.1046 16.126C32.887 16.6362 32.6349 17.406 32.4484 18.5009C34.7055 19.6875 36.2494 22.0572 36.2494 24.7832V44.4864C36.2494 48.3973 33.0735 51.5782 29.1689 51.5782H19.334V53.9998H29.1689C34.4154 53.9998 38.6671 49.7413 38.6671 44.4864V24.7832C38.6671 20.9363 36.3858 17.6239 33.1046 16.126Z" fill="white"/>
<path d="M2.41772 44.4863V36.725H5.27754C5.85606 36.725 6.32406 36.3531 6.32406 35.893C6.32406 35.4329 5.85606 35.061 5.27754 35.061H0V44.4845C0 49.7394 4.25173 53.9997 9.49818 53.9997H19.3331V51.5781H9.49818C5.59357 51.5781 2.41772 48.3971 2.41772 44.4863Z" fill="white"/>
<path d="M2.41772 28.0454H0V29.7077H2.41772V28.0454Z" fill="white"/>
<path d="M2.41772 24.7832C2.41772 22.0572 3.96161 19.6875 6.21872 18.5009C6.03221 17.4042 5.78008 16.6362 5.56248 16.126C2.28129 17.6239 0 20.9363 0 24.7832V26.2068H2.41772V24.7832Z" fill="white"/>
<path d="M2.41772 33.2104H5.4934C5.95104 33.2104 6.32406 32.8385 6.32406 32.3784C6.32406 31.9183 5.95277 31.5464 5.4934 31.5464H0V33.2208H2.41772V33.2086V33.2104Z" fill="white"/>
<path d="M8.80078 16.4912C8.93721 17.0257 9.0201 17.5273 9.0201 17.9563H29.6484C29.6484 17.5273 29.7313 17.0257 29.8678 16.4912H8.80078Z" fill="white"/>
<path d="M8.80078 16.4912C8.93721 17.0257 9.0201 17.5273 9.0201 17.9563H29.6484C29.6484 17.5273 29.7313 17.0257 29.8678 16.4912H8.80078Z" fill="white"/>
</g>
<defs>
<clipPath id="clip0_4232_2243">
<rect width="155" height="54" fill="white"/>
</clipPath>
</defs>
</svg>
