<svg width="1476" height="626" viewBox="0 0 1476 626" fill="none" xmlns="http://www.w3.org/2000/svg">
<path d="M124.593 314.294H294.394V334.903H124.593V314.294ZM127.281 473.342H104.432V159.726H314.107V180.335H127.281V473.342ZM464.331 475.134C441.631 475.134 421.321 470.056 403.4 459.901C385.778 449.746 371.74 435.708 361.286 417.787C351.131 399.866 346.053 379.406 346.053 356.408C346.053 333.111 351.131 312.502 361.286 294.581C371.74 276.66 385.778 262.771 403.4 252.914C421.321 242.759 441.631 237.682 464.331 237.682C483.148 237.682 500.173 241.266 515.406 248.434C530.937 255.603 543.482 266.355 553.04 280.692L536.463 292.788C528.1 280.841 517.646 272.03 505.101 266.355C492.557 260.68 478.966 257.843 464.331 257.843C446.111 257.843 429.684 262.024 415.049 270.387C400.712 278.452 389.362 289.951 380.999 304.885C372.934 319.521 368.902 336.695 368.902 356.408C368.902 376.121 372.934 393.444 380.999 408.378C389.362 423.014 400.712 434.513 415.049 442.876C429.684 450.941 446.111 454.973 464.331 454.973C478.966 454.973 492.557 452.135 505.101 446.46C517.646 440.785 528.1 431.974 536.463 420.027L553.04 432.124C543.482 446.46 530.937 457.213 515.406 464.381C500.173 471.55 483.148 475.134 464.331 475.134ZM707.562 475.134C685.161 475.134 665.149 470.056 647.527 459.901C630.203 449.746 616.315 435.708 605.861 417.787C595.706 399.866 590.628 379.406 590.628 356.408C590.628 333.111 595.706 312.651 605.861 295.029C616.315 277.108 630.203 263.07 647.527 252.914C665.149 242.759 685.161 237.682 707.562 237.682C729.963 237.682 749.975 242.759 767.597 252.914C785.219 263.07 799.108 277.108 809.263 295.029C819.419 312.651 824.496 333.111 824.496 356.408C824.496 379.406 819.419 399.866 809.263 417.787C799.108 435.708 785.219 449.746 767.597 459.901C749.975 470.056 729.963 475.134 707.562 475.134ZM707.562 454.973C725.483 454.973 741.612 450.941 755.949 442.876C770.285 434.513 781.486 422.865 789.55 407.93C797.615 392.996 801.647 375.822 801.647 356.408C801.647 336.695 797.615 319.521 789.55 304.885C781.486 289.951 770.285 278.452 755.949 270.387C741.612 262.024 725.483 257.843 707.562 257.843C689.641 257.843 673.512 262.024 659.176 270.387C645.138 278.452 633.937 289.951 625.574 304.885C617.509 319.521 613.477 336.695 613.477 356.408C613.477 375.822 617.509 392.996 625.574 407.93C633.937 422.865 645.138 434.513 659.176 442.876C673.512 450.941 689.641 454.973 707.562 454.973ZM893.992 473.342V239.474H915.497V303.541L913.257 296.373C919.828 277.556 930.879 263.07 946.411 252.914C961.942 242.759 981.357 237.682 1004.65 237.682V259.635C1003.76 259.635 1002.86 259.635 1001.97 259.635C1001.07 259.336 1000.17 259.187 999.278 259.187C973.292 259.187 952.982 267.401 938.346 283.828C923.711 299.957 916.393 322.507 916.393 351.48V473.342H893.992ZM1159.17 475.134C1135.57 475.134 1114.67 470.056 1096.45 459.901C1078.53 449.746 1064.34 435.708 1053.88 417.787C1043.73 399.866 1038.65 379.406 1038.65 356.408C1038.65 333.111 1043.43 312.651 1052.99 295.029C1062.84 277.108 1076.29 263.07 1093.31 252.914C1110.33 242.759 1129.45 237.682 1150.66 237.682C1171.86 237.682 1190.83 242.61 1207.56 252.466C1224.58 262.323 1237.87 276.212 1247.43 294.133C1257.29 311.755 1262.21 332.215 1262.21 355.512C1262.21 356.408 1262.07 357.453 1261.77 358.648C1261.77 359.544 1261.77 360.589 1261.77 361.784H1055.23V344.311H1249.67L1240.71 352.824C1241.01 334.604 1237.13 318.326 1229.06 303.989C1221.3 289.354 1210.69 278.004 1197.25 269.939C1183.81 261.576 1168.28 257.395 1150.66 257.395C1133.33 257.395 1117.8 261.576 1104.06 269.939C1090.62 278.004 1080.02 289.354 1072.25 303.989C1064.49 318.326 1060.6 334.753 1060.6 353.272V357.304C1060.6 376.419 1064.79 393.444 1073.15 408.378C1081.81 423.014 1093.61 434.513 1108.54 442.876C1123.48 450.941 1140.5 454.973 1159.62 454.973C1174.55 454.973 1188.44 452.285 1201.28 446.908C1214.43 441.532 1225.48 433.318 1234.44 422.267L1247.43 437.052C1237.27 449.597 1224.43 459.154 1208.9 465.725C1193.67 471.998 1177.09 475.134 1159.17 475.134Z" fill="#F0F0F0"/>
<circle cx="1327.47" cy="170.559" r="49.8907" fill="#367D6C"/>
</svg>
